<svg id="Layer_1" data-name="Layer 1" xmlns="http://www.w3.org/2000/svg" viewBox="0 0 348 397.81"><defs><style>.cls-1{fill:#e6e6e6;}.cls-2{fill:#ff7bac;}.cls-3{fill:#7ac943;}.cls-4,.cls-5{fill:#662d91;}.cls-5{stroke:#000;stroke-miterlimit:10;}.cls-6{font-size:48px;fill:#999;font-family:MyriadPro-Regular, Myriad Pro;}.cls-7{letter-spacing:-0.02em;}.cls-8{letter-spacing:-0.01em;}.cls-9{letter-spacing:0em;}.cls-10{letter-spacing:0em;}.cls-11{letter-spacing:0em;}</style></defs><title>pico-2</title><ellipse class="cls-1" cx="174" cy="168.5" rx="174" ry="168.5"/><path class="cls-2" d="M727.43,522c-4.88,2.82-13.15-1-23.43-9.87-2.71-2.34-5.56-5-8.52-8.06l-.5-.52q-3.9-4-8-8.73-3.63-4.15-7.42-8.82-2.54-3.13-5.13-6.49c-.78-1-1.56-2-2.33-3.07q-2.49-3.29-5-6.74-4.2-5.77-8.46-12c-7.79-11.41-15.67-23.94-23.37-37.28-3.38-5.86-6.62-11.68-9.68-17.41h0c-5.34-10-10.18-19.7-14.47-29-1.75-3.8-3.42-7.53-5-11.17-.24-.56-.48-1.11-.71-1.67-.88-2.08-1.74-4.14-2.55-6.16-.45-1.1-.88-2.2-1.31-3.28l-.75-1.91q-1.55-4-2.9-7.81c-.83-2.33-1.6-4.59-2.32-6.8q-.82-2.54-1.55-5L594,330c-.63-2.07-1.19-4.06-1.71-6,0-.14-.08-.29-.11-.43q-.75-2.85-1.33-5.51v0c-3.3-15-2.71-25.23,2.54-28.26,5.09-2.94,13.86,1.31,24.76,11q3.57,3.18,7.42,7.13c.49.5,1,1,1.46,1.52,2.29,2.39,4.65,5,7.05,7.73q2.83,3.25,5.77,6.83l.64.78c1.66,2,3.35,4.15,5,6.34.82,1,1.63,2.11,2.46,3.19q2.45,3.21,4.92,6.6l.8,1.09c1.63,2.25,3.28,4.55,4.93,6.91q2.1,3,4.2,6.09c4.1,6,8.23,12.39,12.33,19q5.25,8.41,10.42,17.37,3.38,5.85,6.55,11.63h0c8.58,15.62,16,30.73,22,44.66l.76,1.78q2,4.75,3.85,9.3c.27.68.54,1.36.79,2q3.31,8.46,5.78,16.08,1.07,3.27,2,6.35c.53,1.82,1,3.58,1.46,5.3.63,2.45,1.18,4.79,1.63,7C733.21,509.56,732.46,519.11,727.43,522Z" transform="translate(-486 -233)"/><path class="cls-3" d="M724.59,316.09c-.71,3.66-1.66,7.65-2.86,11.91v0c-.25.9-.52,1.82-.8,2.75-1.41,4.76-3.11,9.85-5.08,15.21-.15.41-.3.81-.46,1.22q-2.12,5.7-4.62,11.78l-.9,2.17c-2.27,5.42-4.77,11-7.48,16.83-1.45,3.1-3,6.25-4.53,9.43Q694.61,394,691,400.86c-1.07,2-2.16,4.08-3.27,6.14h0c-2.56,4.75-5.24,9.56-8,14.39-.28.48-.56,1-.83,1.44q-3.87,6.68-7.77,13.05c-5.58,9.12-11.2,17.76-16.76,25.8q-2.86,4.15-5.7,8.08-4.71,6.54-9.31,12.43c-3.4,4.37-6.74,8.46-10,12.23-3.76,4.37-7.39,8.32-10.86,11.8-13.6,13.65-24.65,20.15-30.63,16.69-5.41-3.14-5.85-14-2.16-29.89,1-4.47,2.39-9.33,4.06-14.54h0q2.16-6.77,5-14.23c1.7-4.47,3.57-9.13,5.62-13.92,4.82-11.32,10.57-23.45,17.14-36,1.26-2.42,2.56-4.86,3.88-7.31h0c1.07-2,2.16-4,3.28-6,1.58-2.87,3.22-5.76,4.89-8.66q3.85-6.7,7.76-13.11l.75-1.24q3.66-6,7.33-11.68,2.4-3.74,4.8-7.32,2.07-3.11,4.12-6.09,2.43-3.54,4.84-6.91c1-1.37,2-2.73,2.93-4.06q4.75-6.54,9.4-12.39l1.23-1.55c3.58-4.47,7.07-8.62,10.45-12.4,3.92-4.39,7.69-8.29,11.26-11.64,11.92-11.21,21.54-16.29,27-13.14C726.31,293.65,727.15,302.72,724.59,316.09Z" transform="translate(-486 -233)"/><path class="cls-4" d="M724.59,316.09c-.71,3.66-1.66,7.65-2.86,11.91v0c-.25.9-.52,1.82-.8,2.75L683.2,315.6c3.92-4.39,7.69-8.29,11.26-11.64Z" transform="translate(-486 -233)"/><path class="cls-4" d="M629.36,494.43c-3.76,4.37-7.39,8.32-10.86,11.8L585.71,493c1-4.47,2.39-9.33,4.06-14.54Z" transform="translate(-486 -233)"/><path class="cls-4" d="M678.89,422.84q-3.87,6.68-7.77,13.05l-53.58-21.58c1.26-2.42,2.56-4.86,3.88-7.31h0c1.07-2,2.16-4,3.28-6Z" transform="translate(-486 -233)"/><path class="cls-4" d="M707.85,370.43Q704.61,377,701,383.86l-53.66-21.62.75-1.24q3.66-6,7.33-11.68Z" transform="translate(-486 -233)"/><path class="cls-5" d="M627,309.44l-33,20.81L594,330l-3.15-12v0l27.3-17.22q3.57,3.18,7.42,7.13C626,308.42,626.48,308.92,627,309.44Z" transform="translate(-486 -233)"/><path class="cls-4" d="M704,511.53c-2.59-2.25-5.35-4.87-8.21-7.79l-.07-.07L727,484c.49,1.7.91,3.22,1.27,4.65.63,2.44,1.14,4.62,1.56,6.65Z" transform="translate(-486 -233)"/><path d="M726.66,484.77c.41,1.45.77,2.77,1.08,4,.59,2.3,1.08,4.36,1.48,6.28l-25.13,15.86c-2.38-2.09-4.91-4.49-7.54-7.15l30.1-19m.59-1.56L695,503.57l.5.52c3,3,5.81,5.72,8.52,8.06l26.34-16.63c-.45-2.22-1-4.56-1.63-7-.44-1.72-.93-3.48-1.46-5.3Z" transform="translate(-486 -233)"/><path class="cls-5" d="M679.53,486l40-25.24c-.25-.67-.52-1.35-.79-2q-1.82-4.54-3.85-9.3l-42.8,27" transform="translate(-486 -233)"/><path class="cls-4" d="M605.62,360.42c-.8-1.89-1.58-3.77-2.32-5.61-.33-.8-.64-1.59-1-2.38l-1-2.42,38.92-24.57c1.77,2.18,3.33,4.14,4.76,6l1.94,2.51.18.24Z" transform="translate(-486 -233)"/><path d="M640.21,326.1c1.65,2,3.11,3.88,4.48,5.64l1.79,2.31-40.63,25.64c-.83-2-1.49-3.57-2.09-5.06-.32-.78-.63-1.57-.94-2.35l-.36-.92-.45-1.14,38.2-24.11m.22-1.32-39.65,25,.75,1.91c.43,1.08.86,2.18,1.31,3.28.81,2,1.67,4.08,2.55,6.16l42.55-26.85c-.83-1.08-1.64-2.14-2.46-3.19-1.7-2.19-3.39-4.3-5-6.34Z" transform="translate(-486 -233)"/><text class="cls-6" transform="translate(69.66 385.81)"><tspan class="cls-7">P</tspan><tspan x="24.77" y="0">i</tspan><tspan class="cls-8" x="36" y="0">c</tspan><tspan class="cls-9" x="57.22" y="0">o </tspan><tspan class="cls-10" x="93.74" y="0">G</tspan><tspan class="cls-11" x="124.99" y="0">ene</tspan></text></svg>