<svg id="Layer_1" data-name="Layer 1" xmlns="http://www.w3.org/2000/svg" viewBox="0 0 393 436.7"><defs><style>.cls-1{fill:#fff;stroke:#c69c6d;stroke-miterlimit:10;stroke-width:3px;}.cls-2{fill:#39b54a;}.cls-3{fill:#006837;}.cls-4{font-size:48px;fill:#c69c6d;font-family:MyriadPro-Regular, Myriad Pro;}.cls-5{letter-spacing:-0.02em;}.cls-6{letter-spacing:-0.01em;}.cls-7{letter-spacing:0em;}.cls-8{letter-spacing:0em;}</style></defs><title>pico-14</title><ellipse class="cls-1" cx="196.5" cy="190" rx="195" ry="188.5"/><circle class="cls-2" cx="783.99" cy="489.42" r="29.5" transform="translate(-667.9 253.99) rotate(-28.91)"/><polygon class="cls-2" points="279.52 106.63 275.12 114.73 267.51 128.71 257.9 146.37 191.26 268.86 181.64 286.53 173.92 300.72 165.3 316.57 165.26 316.55 113.52 288.39 113.48 288.37 119.25 277.77 126.97 263.58 136.58 245.91 203.22 123.42 212.83 105.76 220.44 91.77 227.7 78.43 227.74 78.45 279.48 106.61 279.52 106.63"/><path class="cls-2" d="M812.36,282.49a29.28,29.28,0,0,1-3.12,8.82c-.24.44-.49.88-.76,1.3a29.07,29.07,0,0,1-6.3,7.3,29.53,29.53,0,0,1-29,5l-.1,0c-.71-.26-1.41-.55-2.1-.88l-.12-.06-.07,0c-.51-.24-1-.49-1.51-.76a29.49,29.49,0,0,1-12.49-38.68c.21-.45.44-.9.68-1.34a28,28,0,0,1,1.82-2.92,29.5,29.5,0,0,1,53.12,22.3Z" transform="translate(-529 -186)"/><path class="cls-2" d="M694.26,502.55c-.21.45-.44.9-.68,1.34-.09.17-.18.33-.28.49a29.5,29.5,0,0,1-54-22.67,29.94,29.94,0,0,1,2.47-6c.24-.44.49-.88.76-1.3a29.18,29.18,0,0,1,9-9.26,29.49,29.49,0,0,1,42.78,37.42Z" transform="translate(-529 -186)"/><polygon class="cls-2" points="280.09 287.85 280.06 287.87 228.48 316.35 228.45 316.37 221.75 304.23 212.7 287.84 204 272.09 134.2 145.71 125.5 129.95 120.85 121.53 112.91 107.15 112.94 107.13 164.52 78.65 164.55 78.63 171.95 92.03 176.6 100.45 185.3 116.2 255.09 242.59 263.79 258.34 272.85 274.73 280.09 287.85"/><path class="cls-2" d="M696.34,280.68a29.45,29.45,0,0,1-15.07,22.72,29.19,29.19,0,0,1-11.1,3.51h0a29.54,29.54,0,0,1-28.22-13.78c-.27-.42-.52-.85-.76-1.29l0-.06a29.5,29.5,0,0,1,51.08-29.5c.2.34.41.69.6,1s.47.88.69,1.33A29.17,29.17,0,0,1,696.34,280.68Z" transform="translate(-529 -186)"/><path class="cls-3" d="M701,278l-4.61,2.65L655,304.53l-5.18,3-7.94-14.38,0,0c-.27-.42-.52-.85-.76-1.29l0-.06,51.08-29.5c.2.34.41.69.6,1s.47.88.69,1.33l0,0Z" transform="translate(-529 -186)"/><polygon class="cls-3" points="190.3 125.2 139.2 154.71 130.5 138.95 146.16 129.91 146.17 129.91 166.84 117.97 181.6 109.45 190.3 125.2"/><polygon class="cls-3" points="263.79 258.34 212.7 287.84 204 272.09 255.09 242.59 263.79 258.34"/><path class="cls-3" d="M809.24,291.31c-.24.44-.49.88-.76,1.3l0,0-4.4,8.1-1.94-.82-48.25-20.25-4.49-1.89,7.26-13.34,0,0c.21-.45.44-.9.68-1.34a28,28,0,0,1,1.82-2.92l53.12,22.3A29.28,29.28,0,0,1,809.24,291.31Z" transform="translate(-529 -186)"/><path class="cls-3" d="M702.92,486.72l-8.62,15.85,0,0c-.21.45-.44.9-.68,1.34-.09.17-.18.33-.28.49l-54-22.67a29.94,29.94,0,0,1,2.47-6c.24-.44.49-.88.76-1.3l0,0,5.77-10.6,3.23,1.36,45.14,18.95Z" transform="translate(-529 -186)"/><polygon class="cls-3" points="191.26 268.86 181.64 286.53 126.97 263.58 136.58 245.91 191.26 268.86"/><polygon class="cls-3" points="212.83 105.76 241.74 117.89 241.81 117.92 241.93 117.98 244.03 118.86 244.13 118.9 267.51 128.71 257.9 146.37 203.22 123.42 212.83 105.76"/><text class="cls-4" transform="translate(110.85 424.7)"><tspan class="cls-5">P</tspan><tspan x="24.77" y="0">i</tspan><tspan class="cls-6" x="36" y="0">c</tspan><tspan class="cls-7" x="57.22" y="0">o </tspan><tspan class="cls-8" x="93.74" y="0">G</tspan><tspan x="124.99" y="0">ene</tspan></text><polygon class="cls-3" points="281.79 291.34 230.7 320.84 222 305.09 273.09 275.59 281.79 291.34"/></svg>