<svg id="Layer_1" data-name="Layer 1" xmlns="http://www.w3.org/2000/svg" viewBox="0 0 816 481"><defs><style>.cls-1{fill:#fff;stroke:#c69c6d;stroke-miterlimit:10;stroke-width:3px;}.cls-2{fill:#662d91;}.cls-3{fill:#39b54a;}.cls-4{fill:#006837;}.cls-5{font-size:48px;fill:#c69c6d;font-family:MyriadPro-Regular, Myriad Pro;}.cls-6{letter-spacing:-0.02em;}.cls-7{letter-spacing:-0.01em;}.cls-8{letter-spacing:0em;}.cls-9{letter-spacing:0em;}</style></defs><title>pico-10</title><rect width="816" height="481"/><ellipse class="cls-1" cx="401.5" cy="224" rx="195" ry="188.5"/><circle class="cls-2" cx="783.99" cy="489.42" r="29.5" transform="translate(-462.9 287.99) rotate(-28.91)"/><polygon class="cls-3" points="484.52 140.63 480.12 148.73 472.51 162.71 462.9 180.37 396.26 302.86 386.64 320.53 378.92 334.72 370.3 350.57 370.26 350.55 318.52 322.39 318.48 322.37 324.25 311.77 331.97 297.58 341.58 279.91 408.22 157.42 417.83 139.76 425.44 125.77 432.7 112.43 432.74 112.45 484.48 140.61 484.52 140.63"/><path class="cls-3" d="M812.36,282.49a29.28,29.28,0,0,1-3.12,8.82c-.24.44-.49.88-.76,1.3a29.07,29.07,0,0,1-6.3,7.3,29.53,29.53,0,0,1-29,5l-.1,0c-.71-.26-1.41-.55-2.1-.88l-.12-.06-.07,0c-.51-.24-1-.49-1.51-.76a29.49,29.49,0,0,1-12.49-38.68c.21-.45.44-.9.68-1.34a28,28,0,0,1,1.82-2.92,29.5,29.5,0,0,1,53.12,22.3Z" transform="translate(-324 -152)"/><path class="cls-3" d="M694.26,502.55c-.21.45-.44.9-.68,1.34-.09.17-.18.33-.28.49a29.5,29.5,0,0,1-54-22.67,29.94,29.94,0,0,1,2.47-6c.24-.44.49-.88.76-1.3a29.18,29.18,0,0,1,9-9.26,29.49,29.49,0,0,1,42.78,37.42Z" transform="translate(-324 -152)"/><polygon class="cls-2" points="485.09 321.85 485.06 321.87 433.48 350.35 433.45 350.37 426.75 338.23 417.7 321.84 409 306.09 339.2 179.71 330.5 163.95 325.85 155.53 317.91 141.15 317.94 141.13 369.52 112.65 369.55 112.63 376.95 126.03 381.6 134.45 390.3 150.2 460.09 276.59 468.79 292.34 477.85 308.73 485.09 321.85"/><path class="cls-2" d="M696.34,280.68a29.45,29.45,0,0,1-15.07,22.72,29.19,29.19,0,0,1-11.1,3.51h0a29.54,29.54,0,0,1-28.22-13.78c-.27-.42-.52-.85-.76-1.29l0-.06a29.5,29.5,0,0,1,51.08-29.5c.2.34.41.69.6,1s.47.88.69,1.33A29.17,29.17,0,0,1,696.34,280.68Z" transform="translate(-324 -152)"/><path class="cls-3" d="M701,278l-4.61,2.65L655,304.53l-5.18,3-7.94-14.38,0,0c-.27-.42-.52-.85-.76-1.29l0-.06,51.08-29.5c.2.34.41.69.6,1s.47.88.69,1.33l0,0Z" transform="translate(-324 -152)"/><polygon class="cls-3" points="395.3 159.2 344.2 188.71 335.5 172.95 351.16 163.91 351.17 163.91 371.84 151.97 386.6 143.45 395.3 159.2"/><polygon class="cls-3" points="468.79 292.34 417.7 321.84 409 306.09 460.09 276.59 468.79 292.34"/><path class="cls-4" d="M809.24,291.31c-.24.44-.49.88-.76,1.3l0,0-4.4,8.1-1.94-.82-48.25-20.25-4.49-1.89,7.26-13.34,0,0c.21-.45.44-.9.68-1.34a28,28,0,0,1,1.82-2.92l53.12,22.3A29.28,29.28,0,0,1,809.24,291.31Z" transform="translate(-324 -152)"/><path class="cls-4" d="M702.92,486.72l-8.62,15.85,0,0c-.21.45-.44.9-.68,1.34-.09.17-.18.33-.28.49l-54-22.67a29.94,29.94,0,0,1,2.47-6c.24-.44.49-.88.76-1.3l0,0,5.77-10.6,3.23,1.36,45.14,18.95Z" transform="translate(-324 -152)"/><polygon class="cls-4" points="396.26 302.86 386.64 320.53 331.97 297.58 341.58 279.91 396.26 302.86"/><polygon class="cls-4" points="417.83 139.76 446.74 151.89 446.81 151.92 446.93 151.98 449.03 152.86 449.13 152.9 472.51 162.71 462.9 180.37 408.22 157.42 417.83 139.76"/><text class="cls-5" transform="translate(289.85 456.7)"><tspan class="cls-6">P</tspan><tspan x="24.77" y="0">i</tspan><tspan class="cls-7" x="36" y="0">c</tspan><tspan class="cls-8" x="57.22" y="0">o </tspan><tspan class="cls-9" x="93.74" y="0">G</tspan><tspan x="124.99" y="0">ene</tspan></text><polygon class="cls-3" points="489.79 331.34 438.7 360.84 430 345.09 481.09 315.59 489.79 331.34"/></svg>