<svg id="Layer_1" data-name="Layer 1" xmlns="http://www.w3.org/2000/svg" viewBox="0 0 738 438"><defs><style>.cls-1,.cls-6{fill:#c69c6d;}.cls-2{fill:#fff;}.cls-3{fill:#39b54a;}.cls-4{fill:#7ac943;}.cls-5{fill:#006837;}.cls-6{font-size:48px;font-family:MyriadPro-Regular, Myriad Pro;}.cls-7{letter-spacing:-0.02em;}.cls-8{letter-spacing:-0.01em;}.cls-9{letter-spacing:0em;}.cls-10{letter-spacing:0em;}.cls-11{letter-spacing:0em;}</style></defs><title>pico-5</title><rect x="1.5" y="1.5" width="735" height="435"/><path class="cls-1" d="M1021,207V639H289V207h732m3-3H286V642h738V204Z" transform="translate(-286 -204)"/><path class="cls-2" d="M660,568c-94.84,0-172-74.69-172-166.5S565.16,235,660,235s172,74.69,172,166.5S754.84,568,660,568Z" transform="translate(-286 -204)"/><path class="cls-1" d="M660,237c45.43,0,88.14,17.13,120.25,48.23S830,357.58,830,401.5s-17.67,85.21-49.75,116.27S705.43,566,660,566s-88.14-17.13-120.25-48.23S490,445.42,490,401.5s17.67-85.21,49.75-116.27S614.57,237,660,237m0-4c-96.1,0-174,75.44-174,168.5S563.9,570,660,570s174-75.44,174-168.5S756.1,233,660,233Z" transform="translate(-286 -204)"/><path class="cls-3" d="M723.75,522.44c-4.65,0-11.37-3.69-19.43-10.67-2.67-2.31-5.53-5-8.49-8l-.44-.45q-4-4.12-8.07-8.78c-2.5-2.86-5-5.82-7.41-8.81-1.73-2.13-3.45-4.32-5.12-6.48-.78-1-1.56-2-2.32-3.06-1.59-2.1-3.27-4.36-5-6.74-2.7-3.71-5.46-7.64-8.45-12-7.94-11.63-15.8-24.16-23.35-37.25-3.41-5.91-6.64-11.72-9.61-17.29l-.06-.12c-5.21-9.73-10.07-19.47-14.46-29-1.86-4-3.49-7.7-5-11.16l-.15-.36c-.19-.44-.37-.87-.55-1.3-.88-2.08-1.74-4.14-2.55-6.16-.33-.8-.64-1.59-1-2.38l-1.11-2.81c-1.09-2.82-2-5.37-2.89-7.79-.81-2.27-1.59-4.55-2.32-6.79q-.82-2.53-1.55-4.94l-.05-.22c-.59-1.94-1.15-3.9-1.71-6,0-.14-.08-.28-.1-.41-.48-1.81-.92-3.66-1.33-5.51-3.38-15.37-2.58-25,2.29-27.77a6.75,6.75,0,0,1,3.42-.85c4.91,0,12.08,4.09,20.75,11.83,2.39,2.13,4.88,4.52,7.39,7.11.49.5,1,1,1.45,1.51,2.35,2.46,4.72,5.05,7,7.72,1.94,2.22,3.87,4.52,5.76,6.82l.65.79c1.88,2.31,3.53,4.38,5,6.32l1.94,2.52.51.67c1.63,2.14,3.28,4.36,4.91,6.59l.8,1.1c1.93,2.66,3.49,4.86,4.92,6.9s2.79,4,4.2,6.08c4.19,6.17,8.33,12.55,12.32,19,3.49,5.6,7,11.43,10.41,17.36,2.31,4,4.49,7.87,6.48,11.51l.06.12c8.41,15.3,15.81,30.32,22,44.62l.71,1.67,0,.11c1.3,3,2.59,6.15,3.85,9.29.27.68.54,1.35.79,2,2.2,5.62,4.14,11,5.77,16.06.67,2,1.32,4.18,2,6.34.57,2,1,3.68,1.46,5.28.66,2.57,1.19,4.86,1.62,7,2.92,14.29,2,23.27-2.67,26A6.75,6.75,0,0,1,723.75,522.44Z" transform="translate(-286 -204)"/><path class="cls-1" d="M597,289.83h0c4.78,0,11.84,4,20.42,11.7,2.38,2.12,4.86,4.5,7.37,7.08.49.5,1,1,1.45,1.51,2.34,2.45,4.71,5,7,7.69,1.94,2.23,3.88,4.52,5.75,6.8l.64.78c1.87,2.3,3.52,4.37,5,6.32l1.94,2.51.51.67c1.62,2.13,3.27,4.34,4.92,6.59l.39.53.4.54c1.93,2.66,3.49,4.85,4.92,6.9s2.8,4,4.19,6.08c4.18,6.16,8.33,12.55,12.31,19,3.49,5.59,7,11.43,10.4,17.34,2.28,4,4.44,7.79,6.42,11.39h0l.12.22c8.4,15.29,15.79,30.29,22,44.58l.76,1.78c1.3,3,2.6,6.16,3.84,9.28.27.67.53,1.35.79,2,2.19,5.6,4.13,11,5.76,16,.66,2,1.32,4.16,2,6.32.57,2,1,3.69,1.45,5.27.66,2.57,1.19,4.84,1.62,7,2.83,13.86,2,22.89-2.43,25.43a6.26,6.26,0,0,1-3.17.78c-4.53,0-11.13-3.65-19.1-10.54-2.66-2.29-5.5-5-8.47-8l-.45-.47,0,0h0c-2.61-2.68-5.3-5.6-8-8.69-2.49-2.85-5-5.81-7.4-8.79-1.73-2.14-3.46-4.32-5.12-6.47-.64-.83-1.48-1.93-2.32-3.06-1.58-2.09-3.26-4.35-5-6.72-2.67-3.67-5.51-7.71-8.44-12-7.94-11.62-15.78-24.14-23.33-37.22-3.37-5.85-6.58-11.62-9.55-17.16h0l-.12-.22c-5.2-9.72-10.06-19.45-14.44-28.94-1.87-4.05-3.49-7.7-5-11.15l-.17-.39c-.18-.42-.36-.84-.54-1.28-1.06-2.5-1.84-4.39-2.55-6.15-.32-.79-.63-1.57-.94-2.35l-.36-.92-.75-1.91c-1.09-2.83-2-5.38-2.89-7.79s-1.59-4.55-2.31-6.77c-.59-1.82-1.1-3.43-1.53-4.88l-.06-.24v0c-.58-1.91-1.14-3.86-1.71-6,0-.12-.07-.25-.1-.41-.47-1.78-.91-3.62-1.32-5.45v-.07c-3.27-14.87-2.54-24.52,2.06-27.18a6.26,6.26,0,0,1,3.17-.78m0-1a7.22,7.22,0,0,0-3.67.92c-5.25,3-5.84,13.25-2.54,28.26v.05q.59,2.65,1.33,5.51c0,.14.07.29.11.43.52,2,1.08,3.94,1.71,6l.06.24q.72,2.41,1.55,5c.72,2.21,1.49,4.47,2.32,6.8q1.35,3.81,2.9,7.81l.75,1.91c.43,1.08.86,2.18,1.31,3.28.81,2,1.67,4.08,2.55,6.16.23.56.47,1.11.71,1.67,1.56,3.64,3.23,7.37,5,11.17,4.29,9.29,9.13,19,14.47,29h0c3.06,5.73,6.3,11.55,9.68,17.41,7.7,13.34,15.58,25.87,23.37,37.28q4.26,6.24,8.46,12,2.52,3.45,5,6.74c.77,1,1.55,2.06,2.33,3.07q2.59,3.36,5.13,6.49,3.78,4.67,7.42,8.82,4.13,4.73,8,8.73l.5.52c3,3,5.81,5.72,8.52,8.06,8,7,14.84,10.79,19.76,10.79a7.22,7.22,0,0,0,3.67-.92c5-2.91,5.78-12.46,2.91-26.5-.45-2.22-1-4.56-1.63-7-.44-1.72-.93-3.48-1.46-5.3q-.9-3.07-2-6.35-2.46-7.61-5.78-16.08c-.25-.67-.52-1.35-.79-2q-1.81-4.55-3.85-9.3l-.76-1.78c-6-13.93-13.44-29-22-44.66h0q-3.17-5.78-6.55-11.63-5.16-8.94-10.42-17.37c-4.1-6.61-8.23-13-12.33-19q-2.1-3.11-4.2-6.09c-1.65-2.36-3.3-4.66-4.93-6.91l-.8-1.09q-2.47-3.39-4.92-6.6c-.83-1.08-1.64-2.14-2.46-3.19-1.7-2.19-3.39-4.3-5-6.34l-.64-.78q-2.92-3.57-5.77-6.83c-2.4-2.76-4.76-5.34-7.05-7.73-.49-.52-1-1-1.46-1.52q-3.84-3.95-7.42-7.13c-8.61-7.69-15.9-12-21.09-12Z" transform="translate(-286 -204)"/><path class="cls-4" d="M591.54,523.34a6.73,6.73,0,0,1-3.41-.85c-5-2.88-5.65-13.3-1.92-29.34,1-4.41,2.38-9.29,4-14.5l0-.08c1.38-4.33,3-9,5-14.13,1.78-4.69,3.67-9.37,5.61-13.9,4.91-11.54,10.67-23.65,17.12-36,1.26-2.42,2.56-4.86,3.88-7.3l.06-.11h0c1-1.94,2.12-3.9,3.22-5.86,1.42-2.57,3-5.4,4.89-8.66,2.51-4.36,5.12-8.77,7.75-13.1l.75-1.24c2.6-4.24,5-8.06,7.32-11.67,1.6-2.49,3.21-4.95,4.8-7.31q2.07-3.1,4.12-6.08c1.62-2.36,3.25-4.68,4.83-6.9l.21-.3c.91-1.27,1.8-2.52,2.71-3.75,3.08-4.23,6.23-8.39,9.39-12.38l.07-.09,1.16-1.46c3.63-4.53,7.14-8.7,10.43-12.38,3.92-4.39,7.69-8.29,11.23-11.61,9.69-9.11,17.63-13.92,23-13.92a6.71,6.71,0,0,1,3.42.85c4.51,2.62,5.52,11.17,2.92,24.74-.72,3.73-1.68,7.72-2.85,11.87-.26.94-.53,1.85-.81,2.78-1.4,4.74-3.11,9.85-5.07,15.18-.15.41-.3.8-.46,1.21-1.42,3.82-3,7.78-4.62,11.77l-.9,2.17c-2.28,5.44-4.79,11.1-7.47,16.81-1.7,3.64-3.14,6.63-4.52,9.42-2.07,4.23-4.3,8.62-6.83,13.42-1.07,2-2.16,4.08-3.27,6.14l-.06.11h0c-2.55,4.73-5.23,9.53-8,14.27-.28.48-.56,1-.83,1.44-2.55,4.4-5.17,8.79-7.76,13-5.51,9-11.14,17.67-16.74,25.78-1.85,2.68-3.76,5.4-5.69,8.07-3.11,4.32-6.24,8.49-9.3,12.42-3.39,4.36-6.75,8.47-10,12.21-3.77,4.39-7.42,8.35-10.83,11.77C606.77,517.3,597.56,523.34,591.54,523.34Z" transform="translate(-286 -204)"/><path class="cls-1" d="M717.76,290.9a6.22,6.22,0,0,1,3.17.78c4.25,2.46,5.2,11.06,2.68,24.21-.72,3.72-1.68,7.7-2.85,11.87-.25.89-.52,1.81-.8,2.73-1.4,4.73-3.1,9.82-5.06,15.15-.15.4-.3.8-.46,1.22-1.41,3.81-3,7.76-4.61,11.76l-.89,2.15c-2.28,5.44-4.79,11.09-7.46,16.79-1.7,3.63-3.14,6.62-4.52,9.41-2.07,4.22-4.3,8.6-6.83,13.41-1,1.83-2,3.78-3.26,6.13l-.12.23c-2.52,4.68-5.18,9.44-7.89,14.15-.28.48-.56,1-.82,1.43-2.56,4.42-5.17,8.81-7.76,13-5.5,9-11.13,17.65-16.73,25.75-1.84,2.68-3.76,5.39-5.69,8.06-3.1,4.3-6.22,8.47-9.29,12.4-3.39,4.35-6.74,8.46-10,12.19-3.77,4.38-7.4,8.33-10.81,11.75-14.26,14.31-22.15,17.31-26.26,17.31a6.23,6.23,0,0,1-3.16-.78c-4.76-2.76-5.36-13-1.69-28.8,1-4.4,2.37-9.26,4-14.46l0-.16h0c1.38-4.3,3-8.89,4.94-14,1.78-4.68,3.67-9.35,5.61-13.88,4.91-11.53,10.66-23.62,17.11-35.95,1.13-2.17,2.4-4.55,3.87-7.3l.11-.22c.87-1.6,2-3.67,3.16-5.77,1.42-2.57,3-5.4,4.88-8.64,2.5-4.34,5.1-8.75,7.75-13.09l.38-.62.37-.62c2.59-4.24,5-8.06,7.32-11.66,1.59-2.47,3.2-4.93,4.79-7.31s2.84-4.23,4.11-6.08c1.63-2.37,3.25-4.69,4.83-6.89l.24-.34c.89-1.25,1.78-2.49,2.68-3.71,3.07-4.23,6.23-8.38,9.38-12.36l1.23-1.54c3.62-4.52,7.13-8.68,10.42-12.36,3.91-4.37,7.67-8.27,11.2-11.58,9.59-9,17.41-13.79,22.62-13.79m0-1c-5.63,0-13.72,5-23.3,14.06-3.57,3.35-7.34,7.25-11.26,11.64-3.38,3.78-6.87,7.93-10.45,12.4l-1.23,1.55q-4.64,5.85-9.4,12.39c-1,1.33-2,2.69-2.93,4.06q-2.41,3.38-4.84,6.91-2.05,3-4.12,6.09-2.4,3.59-4.8,7.32Q641.75,372,638.1,378l-.75,1.24q-3.9,6.41-7.76,13.11c-1.67,2.9-3.31,5.79-4.89,8.66-1.12,2-2.21,4-3.28,6h0c-1.32,2.45-2.62,4.89-3.88,7.31-6.57,12.57-12.32,24.7-17.14,36-2.05,4.79-3.92,9.45-5.62,13.92q-2.84,7.47-5,14.23h0c-1.67,5.21-3,10.07-4.06,14.54-3.69,15.9-3.25,26.75,2.16,29.89a7.19,7.19,0,0,0,3.67.92c6.33,0,15.79-6.39,27-17.61,3.47-3.48,7.1-7.43,10.86-11.8,3.25-3.77,6.59-7.86,10-12.23q4.59-5.88,9.31-12.43,2.84-3.93,5.7-8.08c5.56-8,11.18-16.68,16.76-25.8q3.9-6.37,7.77-13.05c.27-.48.55-1,.83-1.44,2.78-4.83,5.46-9.64,8-14.39h0c1.11-2.06,2.2-4.1,3.27-6.14q3.59-6.81,6.84-13.43c1.58-3.18,3.08-6.33,4.53-9.43,2.71-5.78,5.21-11.41,7.48-16.83l.9-2.17q2.5-6.07,4.62-11.78c.16-.41.31-.81.46-1.22,2-5.36,3.67-10.45,5.08-15.21.28-.93.55-1.85.8-2.75v0c1.2-4.26,2.15-8.25,2.86-11.91,2.56-13.37,1.72-22.44-3.16-25.27a7.18,7.18,0,0,0-3.67-.92Z" transform="translate(-286 -204)"/><path class="cls-5" d="M724.59,316.09c-.71,3.66-1.66,7.65-2.86,11.91v0c-.25.9-.52,1.82-.8,2.75L683.2,315.6c3.92-4.39,7.69-8.29,11.26-11.64Z" transform="translate(-286 -204)"/><path class="cls-1" d="M724.59,315.46c-.82,4.06-1.28,9.62-3.26,13.31-1,1.85-.13,1.2-2,.75-4.28-1-8.61-3.47-12.69-5.11L683.2,315v1.25c3.06-3.4,6.18-6.73,9.46-9.91,1.81-1.75,1.25-1.53,3-1.22,3.18.55,6.72,2.71,9.72,3.91l19.17,7.72c-.14-.05.15-1.19,0-1.25l-19.17-7.72c-3.06-1.23-6.48-3.29-9.72-3.91-1.68-.32-.79-.61-2.44.64-3.74,2.83-6.94,7-10.06,10.5a5.74,5.74,0,0,0,0,1.25l23.45,9.45c4.06,1.63,8.26,3.9,12.49,5,1.53.41,1.13.9,2,0s1.28-4.56,1.57-5.68c.71-2.76,1.33-5.53,1.89-8.33C724.67,316.31,724.51,315.86,724.59,315.46Z" transform="translate(-286 -204)"/><path class="cls-5" d="M629.36,494.43c-3.76,4.37-7.39,8.32-10.86,11.8L585.71,493c1-4.47,2.39-9.33,4.06-14.54Z" transform="translate(-286 -204)"/><path class="cls-1" d="M629.36,493.8c-2.94,3.39-6,8-9.7,10.62-2.12,1.53-.61,1-2.67.57-3.63-.81-7.38-3-10.83-4.36l-20.45-8.23v1.25c.55-2.34,1.15-4.68,1.79-7,.22-.79,1.45-7.23,2.27-7.54.34-.13,2,.8,2.29.92l13.42,5.4,23.88,9.61c-.14-.05.15-1.19,0-1.25l-23.88-9.61-13.19-5.31c-.39-.16-2.11-1.16-2.51-1-.84.31-1.81,5.87-2.06,6.73-.73,2.59-1.4,5.19-2,7.8a5.56,5.56,0,0,0,0,1.25l20.45,8.23c3.44,1.39,7.2,3.55,10.83,4.36,2.06.46.55,1,2.67-.57,3.66-2.63,6.76-7.23,9.7-10.62C629.57,494.81,629.16,494,629.36,493.8Z" transform="translate(-286 -204)"/><path class="cls-5" d="M707.85,370.43Q704.61,377,701,383.86l-53.66-21.62.75-1.24q3.66-6,7.33-11.68Z" transform="translate(-286 -204)"/><path class="cls-1" d="M707.85,369.8q-2.48,5-5.07,10c-.49.95-1.17,3.07-2.1,3.26s-3.56-1.44-4.45-1.79l-18.36-7.4-30.52-12.3v1.25q2.62-4.33,5.33-8.61c.51-.8,2.15-4.07,2.94-4.23s3.14,1.26,3.87,1.56l18,7.25,30.36,12.23c-.14-.05.15-1.19,0-1.25l-30.36-12.23-17.74-7.14c-.94-.38-3.11-1.77-4.13-1.66s-2.44,3.44-2.94,4.23q-2.7,4.28-5.33,8.61a5.54,5.54,0,0,0,0,1.25l30.52,12.3,18.36,7.4c.92.37,3.47,2,4.45,1.79s1.14-1.42,1.66-2.41q2.82-5.41,5.51-10.88C708,370.72,707.69,370.14,707.85,369.8Z" transform="translate(-286 -204)"/><path class="cls-5" d="M627,309.44l-33,20.81L594,330l-3.15-12v0l27.3-17.22q3.57,3.18,7.42,7.13C626,308.42,626.48,308.92,627,309.44Z" transform="translate(-286 -204)"/><path class="cls-5" d="M730.34,495.52,704,512.15c-2.71-2.34-5.56-5-8.52-8.06l-.5-.52,32.27-20.36c.53,1.82,1,3.58,1.46,5.3C729.34,491,729.89,493.3,730.34,495.52Z" transform="translate(-286 -204)"/><path class="cls-5" d="M679.53,486l40-25.24c-.25-.67-.52-1.35-.79-2q-1.82-4.54-3.85-9.3l-42.8,27" transform="translate(-286 -204)"/><path class="cls-5" d="M647.94,334.31l-42.55,26.85c-.88-2.08-1.74-4.14-2.55-6.16-.45-1.1-.88-2.2-1.31-3.28l-.75-1.91,39.65-25c1.66,2,3.35,4.15,5,6.34C646.3,332.17,647.11,333.23,647.94,334.31Z" transform="translate(-286 -204)"/><path class="cls-5" d="M678.89,427.84q-3.87,6.68-7.77,13.05l-53.58-21.58c1.26-2.42,2.56-4.86,3.88-7.31h0c1.07-2,2.16-4,3.28-6Z" transform="translate(-286 -204)"/><path class="cls-1" d="M678.89,427.21q-2.88,4.94-5.82,9.84c-.56.92-1.32,2.9-2.28,3.07s-3.53-1.42-4.44-1.79L648,431l-30.47-12.27v1.25c1.84-3.51,3.54-7,5.5-10.3s1.09-3.23,4-2.06l17.91,7.21,34,13.68c-.14-.05.15-1.19,0-1.25l-34-13.68L627,406.32c-2.82-1.13-2.21-1.19-4,2.06-1.9,3.46-3.64,6.75-5.5,10.3a5.51,5.51,0,0,0,0,1.25L648,432.21l18.34,7.38c.94.38,3.44,2,4.44,1.79s1.22-1.32,1.79-2.27q3.21-5.29,6.31-10.65C679.07,428.15,678.71,427.52,678.89,427.21Z" transform="translate(-286 -204)"/><text class="cls-6" transform="translate(264.66 416.81)"><tspan class="cls-7">P</tspan><tspan x="24.77" y="0">i</tspan><tspan class="cls-8" x="36" y="0">c</tspan><tspan class="cls-9" x="57.22" y="0">o </tspan><tspan class="cls-10" x="93.74" y="0">G</tspan><tspan class="cls-11" x="124.99" y="0">ene</tspan></text></svg>