<svg id="Layer_1" data-name="Layer 1" xmlns="http://www.w3.org/2000/svg" viewBox="0 0 480 480"><defs><style>.cls-1{fill:#fff;stroke:#c69c6d;stroke-miterlimit:10;stroke-width:3px;}.cls-2{fill:#39b54a;}.cls-3{fill:#006837;}.cls-4{font-size:48px;fill:#c69c6d;font-family:MyriadPro-Regular, Myriad Pro;}.cls-5{letter-spacing:-0.02em;}.cls-6{letter-spacing:-0.01em;}.cls-7{letter-spacing:0em;}.cls-8{letter-spacing:0em;}</style></defs><title>pico-13</title><rect width="480" height="480"/><ellipse class="cls-1" cx="237.5" cy="224" rx="195" ry="188.5"/><circle class="cls-2" cx="783.99" cy="489.42" r="29.5" transform="translate(-626.9 287.99) rotate(-28.91)"/><polygon class="cls-2" points="320.52 140.63 316.12 148.73 308.51 162.71 298.9 180.37 232.26 302.86 222.64 320.53 214.92 334.72 206.3 350.57 206.26 350.55 154.52 322.39 154.48 322.37 160.25 311.77 167.97 297.58 177.58 279.91 244.22 157.42 253.83 139.76 261.44 125.77 268.7 112.43 268.74 112.45 320.48 140.61 320.52 140.63"/><path class="cls-2" d="M812.36,282.49a29.28,29.28,0,0,1-3.12,8.82c-.24.44-.49.88-.76,1.3a29.07,29.07,0,0,1-6.3,7.3,29.53,29.53,0,0,1-29,5l-.1,0c-.71-.26-1.41-.55-2.1-.88l-.12-.06-.07,0c-.51-.24-1-.49-1.51-.76a29.49,29.49,0,0,1-12.49-38.68c.21-.45.44-.9.68-1.34a28,28,0,0,1,1.82-2.92,29.5,29.5,0,0,1,53.12,22.3Z" transform="translate(-488 -152)"/><path class="cls-2" d="M694.26,502.55c-.21.45-.44.9-.68,1.34-.09.17-.18.33-.28.49a29.5,29.5,0,0,1-54-22.67,29.94,29.94,0,0,1,2.47-6c.24-.44.49-.88.76-1.3a29.18,29.18,0,0,1,9-9.26,29.49,29.49,0,0,1,42.78,37.42Z" transform="translate(-488 -152)"/><polygon class="cls-2" points="321.09 321.85 321.06 321.87 269.48 350.35 269.45 350.37 262.75 338.23 253.7 321.84 245 306.09 175.2 179.71 166.5 163.95 161.85 155.53 153.91 141.15 153.94 141.13 205.52 112.65 205.55 112.63 212.95 126.03 217.6 134.45 226.3 150.2 296.09 276.59 304.79 292.34 313.85 308.73 321.09 321.85"/><path class="cls-2" d="M696.34,280.68a29.45,29.45,0,0,1-15.07,22.72,29.19,29.19,0,0,1-11.1,3.51h0a29.54,29.54,0,0,1-28.22-13.78c-.27-.42-.52-.85-.76-1.29l0-.06a29.5,29.5,0,0,1,51.08-29.5c.2.34.41.69.6,1s.47.88.69,1.33A29.17,29.17,0,0,1,696.34,280.68Z" transform="translate(-488 -152)"/><path class="cls-3" d="M701,278l-4.61,2.65L655,304.53l-5.18,3-7.94-14.38,0,0c-.27-.42-.52-.85-.76-1.29l0-.06,51.08-29.5c.2.34.41.69.6,1s.47.88.69,1.33l0,0Z" transform="translate(-488 -152)"/><polygon class="cls-3" points="231.3 159.2 180.2 188.71 171.5 172.95 187.16 163.91 187.17 163.91 207.84 151.97 222.6 143.45 231.3 159.2"/><polygon class="cls-3" points="304.79 292.34 253.7 321.84 245 306.09 296.09 276.59 304.79 292.34"/><path class="cls-3" d="M809.24,291.31c-.24.44-.49.88-.76,1.3l0,0-4.4,8.1-1.94-.82-48.25-20.25-4.49-1.89,7.26-13.34,0,0c.21-.45.44-.9.68-1.34a28,28,0,0,1,1.82-2.92l53.12,22.3A29.28,29.28,0,0,1,809.24,291.31Z" transform="translate(-488 -152)"/><path class="cls-3" d="M702.92,486.72l-8.62,15.85,0,0c-.21.45-.44.9-.68,1.34-.09.17-.18.33-.28.49l-54-22.67a29.94,29.94,0,0,1,2.47-6c.24-.44.49-.88.76-1.3l0,0,5.77-10.6,3.23,1.36,45.14,18.95Z" transform="translate(-488 -152)"/><polygon class="cls-3" points="232.26 302.86 222.64 320.53 167.97 297.58 177.58 279.91 232.26 302.86"/><polygon class="cls-3" points="253.83 139.76 282.74 151.89 282.81 151.92 282.93 151.98 285.03 152.86 285.13 152.9 308.51 162.71 298.9 180.37 244.22 157.42 253.83 139.76"/><text class="cls-4" transform="translate(125.85 456.7)"><tspan class="cls-5">P</tspan><tspan x="24.77" y="0">i</tspan><tspan class="cls-6" x="36" y="0">c</tspan><tspan class="cls-7" x="57.22" y="0">o </tspan><tspan class="cls-8" x="93.74" y="0">G</tspan><tspan x="124.99" y="0">ene</tspan></text><polygon class="cls-3" points="322.79 325.34 271.7 354.84 263 339.09 314.09 309.59 322.79 325.34"/></svg>